<?xml version="1.0" encoding="UTF-8" standalone="no"?>
<svg
   version="1.1"
   viewBox="0 0 1497 1399"
   id="svg137"
   sodipodi:docname="LOGO  2025 SVG.svg"
   width="1497"
   height="1399"
   inkscape:version="1.4 (86a8ad7, 2024-10-11)"
   inkscape:export-filename="LOGO  2025 SVG.png"
   inkscape:export-xdpi="96"
   inkscape:export-ydpi="96"
   xmlns:inkscape="http://www.inkscape.org/namespaces/inkscape"
   xmlns:sodipodi="http://sodipodi.sourceforge.net/DTD/sodipodi-0.dtd"
   xmlns:xlink="http://www.w3.org/1999/xlink"
   xmlns="http://www.w3.org/2000/svg"
   xmlns:svg="http://www.w3.org/2000/svg">
  <defs
     id="defs137">
    <linearGradient
       id="linearGradient139"
       inkscape:collect="always">
      <stop
         style="stop-color:#93662d;stop-opacity:1;"
         offset="0.14403974"
         id="stop139" />
      <stop
         style="stop-color:#c9b31e;stop-opacity:1;"
         offset="0.49006623"
         id="stop141" />
      <stop
         style="stop-color:#e4d44e;stop-opacity:1;"
         offset="0.62748343"
         id="stop142" />
      <stop
         style="stop-color:#93662d;stop-opacity:1;"
         offset="0.81509852"
         id="stop143" />
      <stop
         style="stop-color:#93662d;stop-opacity:1;"
         offset="1"
         id="stop140" />
    </linearGradient>
    <linearGradient
       inkscape:collect="always"
       xlink:href="#linearGradient139"
       id="linearGradient140"
       x1="260.18301"
       y1="-809.33154"
       x2="1602.3772"
       y2="-809.33154"
       gradientUnits="userSpaceOnUse" />
  </defs>
  <sodipodi:namedview
     id="namedview137"
     pagecolor="#ffffff"
     bordercolor="#000000"
     borderopacity="0.25"
     inkscape:showpageshadow="2"
     inkscape:pageopacity="0.0"
     inkscape:pagecheckerboard="0"
     inkscape:deskcolor="#d1d1d1"
     inkscape:zoom="0.14421015"
     inkscape:cx="2777.197"
     inkscape:cy="377.92069"
     inkscape:window-width="1920"
     inkscape:window-height="974"
     inkscape:window-x="-11"
     inkscape:window-y="-11"
     inkscape:window-maximized="1"
     inkscape:current-layer="svg137">
    <inkscape:page
       x="0"
       y="0"
       width="1497"
       height="1399"
       id="page143"
       margin="0"
       bleed="0" />
  </sodipodi:namedview>
  <g
     id="g143"
     transform="translate(-205.93894,1515.1222)">
    <ellipse
       style="fill:#2cfd00;fill-opacity:0;stroke:#ac8926;stroke-width:9.195;stroke-linecap:round;stroke-linejoin:round;stroke-miterlimit:10.7;stroke-dasharray:none;stroke-opacity:1;paint-order:stroke fill markers"
       id="path143"
       cx="627.87354"
       cy="-483.66803"
       rx="18.478857"
       ry="18.249306" />
    <ellipse
       style="fill:#2cfd00;fill-opacity:0;stroke:#d9c73a;stroke-width:9.195;stroke-linecap:round;stroke-linejoin:round;stroke-miterlimit:10.7;stroke-dasharray:none;stroke-opacity:1;paint-order:stroke fill markers"
       id="path143-0"
       cx="992.22101"
       cy="-484.09308"
       rx="18.478857"
       ry="18.249306" />
    <ellipse
       style="fill:#2cfd00;fill-opacity:0;stroke:#d5c048;stroke-width:9.195;stroke-linecap:round;stroke-linejoin:round;stroke-miterlimit:10.7;stroke-dasharray:none;stroke-opacity:1;paint-order:stroke fill markers"
       id="path143-0-9"
       cx="1184.4043"
       cy="-482.83105"
       rx="18.478857"
       ry="18.249306" />
    <path
       d="m 739.89698,-1435.7798 c -25.51333,6.6267 -50.42667,14.9633 -74.74,25.01 -53.38,21.66 -102.87667,50.0367 -148.49,85.13 -99.1,74.78 -174.71,179.4 -217.06996,295.98 -71.82,198.34997 -44.35,416.76997 73.10996,591.25 25.45333,37.74667 54.6,72.51667 87.44,104.31 54.56,54.01 119.91,97.55 190.31,129.06 43.82,19.85999 89.32333,34.43666 136.51,43.72999 59.14,12.1 117.28,16.41333 174.42,12.94 22.26,-1.36 47.78002,-4.66333 76.56002,-9.91 46.73,-8.05 87.24,-20.61 127.99,-36.78 54.1933,-21.51333 104.76,-50.19332 151.7,-86.03999 21.24,-15.65 38.95,-31.14 60.14,-49.51 22.38,-19.39 42.47,-44.86 59.98,-67.17 54.68,-69.65 94.39,-151.45 115.49,-237.47003 8.41,-34.26 12.6,-57.41 16.44,-92.25 7.0867,-64.40667 4.0933,-128.30997 -8.98,-191.70997 -10.09,-48.96 -22.7,-91.22 -42.19,-136.74 -6.88,-16.06 -12.28,-28.51 -19.72,-42.19 -5.5067,-10.1267 -11.1233,-20.1933 -16.85,-30.2 -0.08,-0.1467 -0.1933,-0.2267 -0.34,-0.24 -0.2933,-0.02 -0.3833,0.1067 -0.27,0.38 0.6533,1.4867 1.3667,2.9433 2.14,4.37 10.44,19.27 20.64,38.97 29.35,59.08 38.1467,87.9733 55.83,179.35 53.05,274.12997 -3.28,112.07 -35.39,224.09003 -94.76,318.74003 -42.73,68.11 -98,127.6 -162.01,177.68 -34.5067,25.60667 -71.1234,47.59667 -109.85,65.97 -31.07,14.75 -65.31,26.27 -98.27,36.05999 -17.05,5.07 -35.38,7.07 -55.34,10.1 -18.98,2.83333 -34.9,4.56 -47.76002,5.18 -37.8,1.82 -74.97,4.15 -112.68,-0.97 -135.86,-16.08 -262.4,-71.31999 -364.6,-162.51999 -72.26,-67.01 -134.32,-150.4 -168.27,-243.02 -4.74667,-12.96002 -9.20667,-26.01336 -13.38,-39.16003 -62.47996,-196.84 -26.58,-408.91997 94.53,-575.42997 17.9,-24.6 36.10667,-45.57 54.62,-62.91 4.75333,-4.4533 15.33333,-13.88 31.74,-28.28 46.21333,-39.5867 97.17667,-71.6333 152.89,-96.14 23.87333,-10.0867 48.10333,-19.15 72.69,-27.19 46.35333,-13.72 93.53333,-22.73 141.54,-27.03 38.72,-3.47 79.09,-1.88 117.87002,2.25 0.6133,0.033 1.4267,0.1033 2.44,0.21 60.99,6.26 124.22,22.84 177.93,46.17 52.09,22.62 100.27,50.26 145.25,87.27 0.1913,0.1507 0.4737,0.032 0.5,-0.21 0.013,-0.1867 -0.057,-0.3567 -0.21,-0.51 -4.4467,-4.2467 -9.0667,-8.2933 -13.86,-12.14 -27.76,-22.27 -56.16,-43.49 -87.52,-60.46 -67.66,-36.61 -139.14,-61.73 -215.24,-74.04 -1.14,-0.19 -2.49,-0.02 -3.66,-0.02 -0.58,-0.2 -1.1733,-0.3333 -1.78,-0.4 -19.31335,-1.9733 -38.63335,-3.85 -57.96002,-5.63 -2.09,-0.19 -3.08,-1.57 -2.37,-3.5 0.12085,-0.3243 0.42778,-0.5396 0.77,-0.54 44.48667,0.34 88.61002,4.77 132.37002,13.29 46.9467,10.38 92.4733,25.2733 136.58,44.68 3.5133,1.5467 7.1466,3.14 10.9,4.78 40.2933,19.78 78.3266,43.38 114.1,70.8 23.4,18.7333 45.77,38.56 67.11,59.48 96.23,94.33 157.69,220.56 178.67,353.23 14.37,90.80997 7.84,178.85997 -15.4,267.53997 -1.64,6.26667 -3.4967,12.67333 -5.57,19.22 -15.66,49.50003 -34.07,92.12003 -59.36,137.48003 -13.23,23.73 -29.54,46.33 -46.36,68.52 -0.4467,0.58 -0.4533,1.18 -0.02,1.8 0.22,0.32 0.4567,0.33 0.71,0.03 19.03,-23.03 34.8,-48.06 49.89,-73.76 29.8333,-50.81333 52.4733,-104.67001 67.92,-161.57003 12.09,-44.55 18.69,-93.71 20.89,-139.49 0.99,-20.58 0.7,-41.34 0.82,-61.93997 0.013,-2.68 -0.5467,-7.43 -1.68,-14.25 -0.8333,-5 -1.4667,-9.73 -1.9,-14.19 -17.34,-178.36 -106.64,-340.25 -248.35,-449.83 -5.2933,-4.3733 -12.6967,-9.8133 -22.21,-16.32 -31.56,-21.61 -63.46,-41.68 -96.72,-56.14 -46.39,-22.29 -97.81,-40.82 -148.79,-49.75 -11.4933,-2.3333 -23.23,-4.4867 -35.21,-6.46 -103.02002,-16.94 -208.98002,-4.26 -307.62002,28.16 z m 196.0006,207.338 c -0.002,-0.6185 -0.50538,-1.1182 -1.1239,-1.116 l -10.3999,0.036 c -0.61856,0 -1.11826,0.5053 -1.1161,1.1239 l 0.1187,33.9998 c 0.002,0.6185 0.50538,1.1182 1.1239,1.116 l 10.3999,-0.036 c 0.61856,0 1.11826,-0.5053 1.1161,-1.1239 z m 71.30942,104.402 47.08,202.31 c 0.4315,1.8387 2.0713,3.1389 3.96,3.14 l 43.18,-0.13 c 0.7867,-0.01 1.0933,-0.39 0.92,-1.15 -0.28,-1.2533 -0.6967,-2.68 -1.25,-4.28 -29.7933,-85.4733 -59.48,-170.9833 -89.06,-256.53 -0.2333,-0.6867 -0.55,-1.93 -0.95,-3.73 -0.7,-3.13 -2.69,-6.54 -3.44,-8.94 -0.8133,-2.6 -1.68,-5.18 -2.6,-7.74 -1.5467,-4.9 -4.17,-12.64 -7.87002,-23.22 -0.64667,-1.84 -1.35333,-3.3567 -2.12,-4.55 -0.19965,-0.3058 -0.54195,-0.4901 -0.91,-0.49 l -10.6,0.17 c -0.43333,0.01 -0.6,0.22 -0.5,0.64 z m -167.90002,-34.26 -43.71,125.92 -38.95,111.79 c -0.29732,0.8409 0.32807,1.7226 1.22,1.72 l 40.32,-0.1 4.77,-0.07 c 0.64667,-0.01 1.04333,-0.3267 1.19,-0.96 l 42.63,-184.25 28.97,-123.8 c 0.12296,-0.5162 -0.26935,-1.0115 -0.8,-1.01 h -9.53 c -0.99333,0 -1.65,0.47 -1.97,1.41 z m 96.8,-10.38 c 0,-0.6241 -0.50592,-1.13 -1.13,-1.13 h -10.62 c -0.62408,0 -1.13,0.5059 -1.13,1.13 v 57.74 c 0,0.6241 0.50592,1.13 1.13,1.13 h 10.62 c 0.62408,0 1.13,-0.5059 1.13,-1.13 z m -14.16,124.37 -10.7,124 c -0.08,0.9733 0.36667,1.4567 1.34,1.45 l 8.69,-0.05 14.43,0.22 10.48,0.19 c 0.46482,0.01 0.83536,-0.3865 0.8,-0.85 l -8.86,-114.2 -2.6,-28.05 c -0.0685,-0.7428 -0.69969,-1.3038 -1.44,-1.28 l -9.06,0.27 c -1.16,0.033 -1.78333,0.6267 -1.87,1.78 z m -305.15,280.25997 c -1.9,30.54 24.63,46.4 49.57,55.84 11.86,4.49333 23.78333,8.79667 35.77,12.91 16.53,5.68 37.91,16.92 45.43,33.6 4.51333,10.02 3.99333,20.35 -1.56,30.99 -16.6,31.79 -58.63,34.67003 -86.57,18.11 -15.74667,-9.33333 -28.46,-21.89667 -38.14,-37.69 -0.63357,-1.02588 -1.98289,-1.33275 -2.99,-0.68 -0.01,0.01 -0.19,23.88 -0.34,26.14 -0.0437,0.66472 0.2403,1.30758 0.76,1.72 21.08,16.95 49.13,27.26003 76.25,24.42 30.9,-3.23 64.36,-19.5 67.6,-53.9 2.62,-27.96 -17.56,-45.06 -40.74,-55.47 -17.2,-7.73 -35.48,-13.26 -53.23,-19.59 -10.94,-3.89333 -20.06333,-9.28 -27.37,-16.16 -11.7,-11.02 -11.82,-29.59 -3.71,-42.68 13.58,-21.94 43.85,-29.33 67.53,-24.64 18.61,3.68 33.31,14.51 42.26,31.37 0.47,0.88 1.5,1.86 2.4,2.02 0.51328,0.0868 0.98108,-0.30944 0.98,-0.83 v -26.19 c -3.3e-4,-0.36698 -0.19366,-0.70815 -0.51,-0.9 -0.8,-0.49333 -1.87667,-0.95 -3.23,-1.37 -21.34667,-6.58667 -42.40667,-9.39667 -63.18,-8.43 -29.44,1.38 -64.9,17.89 -66.98,51.41 z m 289.14,-43.17 c 0.16,58.44667 -0.10333,116.89333 -0.79,175.34 -0.15,12.15 -3.66,25.51 -17.59,27.05 -0.88673,0.10481 -1.27622,1.17294 -0.66,1.81 0.12,0.12667 0.41,0.15 0.87,0.07 0.34667,-0.06 0.63667,-0.0867 0.87,-0.08 17.54,0.3 34.91333,0.33333 52.12,0.1 1.09375,0.0275 1.28013,-1.55225 0.21,-1.78 -7.51,-1.89 -12.79,-3.66 -14.51,-12.15 -3.11,-15.44 -2.83,-32.23 -2.84,-47.95 -0.0333,-47.44 0.02,-94.87333 0.16,-142.3 0,-0.31333 0.16,-0.48333 0.48,-0.51 20.37,-1.37 52.87,2.63 61.62,24.81 0.3162,0.86019 1.59323,0.61617 1.57,-0.3 v -26.95 c 0,-0.27614 -0.22386,-0.5 -0.5,-0.5 h -144.03 c -0.4363,0 -0.79,0.34922 -0.79,0.78 l -0.06,26.04 c 0.0171,1.01462 1.42016,1.26828 1.77,0.32 1.62,-4.49 3.35,-7.95 7.19,-11.03 13.73,-11 36.87,-14.25 54.42,-13.29 0.32667,0.0133 0.49,0.18667 0.49,0.52 z m 252.52002,181.41 c -17.7733,-46.34667 -35.4467,-92.8 -53.02,-139.36 -4.66,-12.35 -14.39,-35.17 4.5,-41.11 4.44,-1.39 9.12,-1.31 13.51,-2.67 0.9095,-0.25468 0.7041,-1.59867 -0.24,-1.57 l -67.45,-0.06 c -0.9032,0.0278 -1.0597,1.30487 -0.19,1.55 18.2,4.61 25.26,28.27 31.46,44.66 20.6467,54.63333 41.1733,109.26667 61.58,163.9 0.3133,0.84 1.1,1.28667 2.36,1.34 0.66,0.0267 1.3467,-0.51667 2.06,-1.63 1.2867,-2 2.3433,-4.11333 3.17,-6.34 21.48,-58.15 43.35,-116.29 65.8,-174.08 4.71,-12.13 10.62,-24.05 24.52,-27.77 0.5333,-0.14 0.8133,-0.31333 0.84,-0.52 0.066,-0.58207 -0.5036,-1.09126 -1.22,-1.09 h -57.15 c -0.7603,0.0208 -0.9465,1.06843 -0.24,1.35 3.33,1.22 7.81,1.31 10.28,1.92 25.71,6.42 11.7,40.78 5.98,57.13 -14.6,41.76667 -29.86,83.21667 -45.78,124.35 -0.1314,0.3587 -0.6387,0.3587 -0.77,0 z M 931.34698,-498.4998 c -6.51,12.08 9.83,17.35 17.46,20.63 4.76,2.04 2.83,6.94 -1.46,7.68 -4.79333,0.83333 -8.8,-0.34 -12.02,-3.52 -0.39218,-0.38659 -1.02129,-0.38209 -1.4,0.01 l -4.84,4.95 c -0.49577,0.50776 -0.43976,1.3338 0.12,1.77 6.86,5.32 19.6,8.54 27.12,2.32 5.67,-4.69 6.79,-13.11 1.17,-18.36 -3.29,-3.06 -9.87,-4.77 -14.39,-7.18 -2.43,-1.29 -4.89,-4.92 -1.84,-6.55 4.86,-2.61 8.76,-0.08 13.24,1.86 0.38667,0.17333 0.72,0.0967 1,-0.23 l 4.41,-5.1 c 0.28667,-0.33333 0.26333,-0.64 -0.07,-0.92 -8.3,-7.03 -22.8,-7.93 -28.5,2.64 z m -258.86,-6.29 c -30.61,10.62 -10.54,53.45 17.12,41.82 3.77,-1.58 6.78,-2.8 8.66,-5.83 2.2,-3.54 1.17,-12.44 1.18,-16.77 0.007,-0.40667 -0.19333,-0.61 -0.6,-0.61 l -15.91,-0.13 c -0.45793,-5.7e-4 -0.8229,0.38264 -0.8,0.84 l 0.38,7.05 c 0.009,0.25497 0.23737,0.44577 0.49,0.41 l 4.99,-0.7 c 0.20352,-0.0312 0.40849,0.0273 0.56,0.16 3.04,2.66 1.91,5.65 -1.41,7.12 -12.33,5.48 -25.52,-7.14 -18.39,-19.33 1.92,-3.28667 4.38333,-5.41333 7.39,-6.38 6.77,-2.16 11.25,1.74 16.85,4.82 0.28255,0.15399 0.63543,0.0965 0.86,-0.14 l 4.28,-4.56 c 0.62072,-0.66187 0.55651,-1.70747 -0.14,-2.28 -8.19333,-6.72 -16.69667,-8.55 -25.51,-5.49 z m 156.3,37.36 c 7.53333,6.44667 16.18667,7.65667 25.96,3.63 3.46667,-1.42667 6.02,-3.34 7.66,-5.74 0.22607,-0.32973 0.18842,-0.7731 -0.09,-1.06 l -4.64,-4.76 c -0.34667,-0.35333 -0.71,-0.37667 -1.09,-0.07 -6.23,5.02 -13.34,7.29 -20.31,2.56 -7.11,-4.82 -7.32,-13.57 -2.32,-19.92 6.13,-7.76 14.93,-4.89 21.75,0.33 0.47174,0.36322 1.13762,0.32929 1.57,-0.08 l 4.31,-4.01 c 0.85901,-0.80463 0.83578,-2.17495 -0.05,-2.95 -23.53,-20.62 -56.76,11.52 -32.75,32.07 z m 40.58,-31.35 c -6.16,11.85 6.46,16.66 15.25,19.85 3.49,1.27 6.91,6.87 1.73,8.55 -4.91333,1.58 -9.42,0.44667 -13.52,-3.4 -0.25424,-0.24161 -0.6428,-0.26695 -0.92,-0.06 -2.06,1.52667 -3.80333,3.35333 -5.23,5.48 -0.40667,0.62 -0.30333,1.13333 0.31,1.54 7.22,4.75 18,7.38 25.6,3.42 5.54,-2.89 8.15,-10.27 5.21,-16.07 -2.69,-5.31 -11.76,-8.42 -16.9,-10.97 -2.9,-1.44 -4.39,-5.91 -0.68,-6.86 4.14667,-1.06 7.73,-0.36333 10.75,2.09 0.66486,0.54041 1.63642,0.47506 2.23,-0.15 l 4.3,-4.58 c 0.4029,-0.42731 0.34205,-1.1106 -0.13,-1.46 -8.25,-6.09 -22.38,-8.18 -28,2.62 z m 400.50002,14.05 c 4.04,2.77333 8.4166,4.87667 13.13,6.31 1.6866,0.51333 2.9133,2.00667 3.68,4.48 0.095,0.31655 0.044,0.65812 -0.14,0.93 -3.95,5.91 -12.41,2.68 -16.84,-0.72 -0.28,-0.22 -0.5434,-0.2 -0.79,0.06 l -4.99,5.15 c -0.4134,0.42641 -0.3621,1.12011 0.11,1.49 6.8133,5.27333 14.1233,6.85333 21.93,4.74 11.36,-3.08 15.19,-17.01 3.38,-22.9 -3.55,-1.77 -13.82,-4.94 -14.54,-8.74 -0.067,-0.33333 -0.01,-0.64 0.18,-0.92 3.3,-4.96 9.87,-2.93 13.81,-0.19 0.5628,0.39003 1.3271,0.30463 1.79,-0.2 l 4.39,-4.77 c 0.3527,-0.38343 0.2969,-0.98761 -0.12,-1.3 -6.8,-5.16 -17.46,-7.2 -24.52,-2.18 -6.12,4.34 -7.31,14.05 -0.46,18.76 z m -540.64002,-14.41 c -7.45,10.87 7.7,17.63 15.15,20.16 1.96,0.66 6.86,4.13 4.4,6.55 -5.07,4.97 -11.38,2.01 -16.58,-1.19 -0.33393,-0.20483 -0.76333,-0.15063 -1.03,0.13 l -4.74,5.05 c -0.48667,0.51333 -0.45,0.99 0.11,1.43 7.10667,5.56667 14.91667,6.98333 23.43,4.25 6.9,-2.21 11.51,-10.45 7.46,-17.16 -3.58,-5.93 -11.62,-7.52 -16.56,-10.05 -5.94,-3.03 -2.61,-8.06 2.74,-7.96 2.62,0.05 5.45,1.5 8,2.58 0.29333,0.12667 0.58333,0.11333 0.87,-0.04 2.42,-1.3 6.91,-4.98 3.29,-7.27 -7.99,-5.07 -20.75,-4.93 -26.54,3.52 z m -148.89,27.75 c -0.27333,-10.66667 -0.39667,-21.34333 -0.37,-32.03 0.01,-3.84 -6.55,-2.43 -8.93,-1.96 -0.36,0.0667 -0.54,0.28667 -0.54,0.66 l -0.04,41.17 c 0,0.83333 0.41667,1.25 1.25,1.25 l 26.71,-0.04 c 1.12,0 1.75333,-0.55333 1.9,-1.66 0.29333,-2.16 0.0867,-4.25333 -0.62,-6.28 -0.12,-0.35333 -0.36667,-0.53 -0.74,-0.53 h -18.02 c -0.38667,0 -0.58667,-0.19333 -0.6,-0.58 z m 138.662,-33.2934 c 0.002,-0.60751 -0.48859,-1.10175 -1.0961,-1.1039 l -7.22,-0.025 c -0.60751,-0.002 -1.1017,0.48869 -1.1038,1.0962 l -0.1441,41.2797 c -0.002,0.60751 0.48859,1.10175 1.0961,1.1039 l 7.22,0.025 c 0.60751,0.002 1.1017,-0.48869 1.1038,-1.0962 z m 332.66802,34.8334 c -0.031,-0.50832 -0.4507,-0.90572 -0.96,-0.91 l -18.29,-0.08 c -0.5357,0 -0.97,-0.43428 -0.97,-0.97 v -33.09 c 2e-4,-0.54765 -0.4526,-0.98694 -1,-0.97 l -7.31,0.23 c -0.524,0.0162 -0.9403,0.44578 -0.94,0.97 v 41.44 c 0,0.53965 0.4404,0.97556 0.98,0.97 l 27.88,-0.18 c 0.5561,-0.005 0.9944,-0.47495 0.96,-1.03 z m 8.04,-3.17 c 5.99,15.16 27.1,16.01 34.08,1.35 3.82,-8 2.35,-24.41 1.78,-33.29 -0.027,-0.4 -0.24,-0.6 -0.64,-0.6 h -7.71 c -0.32,0 -0.48,0.16333 -0.48,0.49 -0.01,6.38 1.62,29.48 -4.07,33.22 -4.84,3.18 -13.45,1.83 -14.46,-4.96 -1.35,-9.07 -0.57,-18.98 -1.03,-28.43 -0.013,-0.37333 -0.2067,-0.55333 -0.58,-0.54 l -7.61,0.24 c -0.4333,0.0133 -0.6633,0.23333 -0.69,0.66 -0.6,8.7 -1.77,23.81 1.41,31.86 z m 93.24,-31.96 c 0,-0.43078 -0.3492,-0.78 -0.78,-0.78 h -7.7 c -0.4308,0 -0.78,0.34922 -0.78,0.78 v 41.9 c 0,0.43078 0.3492,0.78 0.78,0.78 h 7.7 c 0.4308,0 0.78,-0.34922 0.78,-0.78 z m 93.75,24.66 c 0.01,0.53369 -0.6699,0.76712 -0.99,0.34 -5.0267,-6.50667 -10,-12.85 -14.92,-19.03 -3.78,-4.75 -5.11,-7.14 -10.99,-6.73 -2.19,0.15 -2.8,0.74 -2.81,2.99 -0.093,13.23333 -0.09,26.49333 0.01,39.78 0,0.36451 0.2999,0.66 0.67,0.66 h 8.57 c 0.36,0 0.5366,-0.18 0.53,-0.54 l -0.37,-24.47 c -0.015,-0.39983 0.4586,-0.62136 0.77,-0.36 0.8666,0.74667 1.6966,1.63 2.49,2.65 5.1333,6.61333 10.3233,13.18333 15.57,19.71 2.7666,3.43333 6.0866,4.28333 9.96,2.55 0.6142,-0.27289 1.01,-0.88428 1.01,-1.56 v -40.61 c 0,-0.41333 -0.2067,-0.62 -0.62,-0.62 h -8.25 c -0.42,0 -0.63,0.21 -0.63,0.63 z m -485.09002,-17.64 c -0.0424,0.66603 0.50335,1.22114 1.17,1.19 l 10.5,-0.48 c 0.63799,-0.0285 1.17064,0.48138 1.17,1.12 v 32.7 c 0,0.61856 0.50144,1.12 1.12,1.12 h 7.26 c 0.61856,0 1.12,-0.50144 1.12,-1.12 v -32.16 c -6e-4,-0.59955 0.47105,-1.09323 1.07,-1.12 l 10.09,-0.47 c 0.59895,-0.0268 1.0706,-0.52045 1.07,-1.12 v -6.14 c 0,-0.61856 -0.50144,-1.12 -1.12,-1.12 h -31.9 c -0.59222,-10e-4 -1.08299,0.45893 -1.12,1.05 z m 50.84,-6.78 c 0,-0.44735 -0.36265,-0.81 -0.81,-0.81 h -8.12 c -0.44735,0 -0.81,0.36265 -0.81,0.81 v 41.62 c 0,0.44735 0.36265,0.81 0.81,0.81 h 8.12 c 0.44735,0 0.81,-0.36265 0.81,-0.81 z m 289.92002,6.93 c -0.023,0.50708 0.3824,0.93051 0.89,0.93 l 11.08,0.1 c 0.4915,0.005 0.8855,0.40845 0.88,0.9 l -0.33,32.67 c -0.01,0.49543 0.3945,0.90003 0.89,0.9 h 7.76 c 0.4915,0 0.89,-0.39847 0.89,-0.89 l 0.03,-32.65 c -3e-4,-0.48005 0.3802,-0.87382 0.86,-0.89 l 10.52,-0.36 c 0.4798,-0.0162 0.8603,-0.40995 0.86,-0.89 v -6.68 c 0,-0.49153 -0.3985,-0.89 -0.89,-0.89 h -32.21 c -0.4763,-4.8e-4 -0.8686,0.37415 -0.89,0.85 z"
       style="fill:url(#linearGradient140);fill-opacity:1"
       id="path1"
       sodipodi:nodetypes="ccccccccccccccccccccccccccccccccccccccccccccccccccccccccccccccccccccccccccccccccccscccscccccccccccccccccccccccccccsccsssssssssccccccccccccccccccccccccccccccccccccccccccccccccccccssscccccccccccccccccccccccccccccccccccsccccccccccccccccccccccccccccccccccccccccccccccccccccccccccccccccccccccccccccccccccccccccccccccccccsscccccccccccccsccccscccccccssccccccccsssssssssccccccssccccccssssscccccssssccccsscccsssssssssccccccscccccssccc" />
  </g>
</svg>
